<svg width="122" height="41" viewBox="0 0 122 41" fill="none" xmlns="http://www.w3.org/2000/svg">
<path d="M11.6445 20.979L5.12785 27.6426V36.9932H0V0.880615H5.12785V21.0864L24.5709 0.880615H30.4466L15.1699 17.1098L31.5149 36.9932H25.5324L11.6445 20.979Z" fill="white"/>
<path d="M68.9054 34.0912L70.9352 30.222C73.2854 31.8342 76.9177 33.0165 80.4431 33.0165C85.0367 33.0165 86.8529 31.6192 86.8529 29.2547C86.8529 23.1285 69.6532 28.3949 69.6532 17.5397C69.6532 12.5957 74.0332 9.37134 80.9772 9.37134C84.5026 9.37134 88.5621 10.3386 90.9124 11.8433L88.7758 15.7125C86.3187 14.1004 83.648 13.563 80.9772 13.563C76.704 13.563 74.5674 15.1751 74.5674 17.3247C74.5674 23.7734 91.767 18.507 91.767 29.1473C91.767 34.0912 87.2802 37.2081 80.0157 37.2081C75.6357 37.3156 71.1488 35.9184 68.9054 34.0912Z" fill="white"/>
<path d="M122 20.4414V36.993H117.299V33.3387C115.697 35.8107 112.599 37.2079 108.326 37.2079C102.13 37.2079 98.2837 33.8761 98.2837 29.1471C98.2837 24.7405 101.061 21.1937 109.18 21.1937H116.979V20.2264C116.979 16.0348 114.522 13.6703 109.715 13.6703C106.51 13.6703 103.198 14.8525 101.061 16.5722L99.0315 12.8104C101.809 10.5534 105.869 9.26367 110.249 9.26367C117.834 9.37115 122 13.0254 122 20.4414ZM117.086 28.6097V24.7405H109.501C104.587 24.7405 103.198 26.6751 103.198 28.9321C103.198 31.6191 105.441 33.3387 109.18 33.3387C112.919 33.4462 115.911 31.834 117.086 28.6097Z" fill="white"/>
<path d="M53.0946 29.7922V37.1007L56.1927 35.2736V27.9651L53.0946 29.7922Z" fill="white"/>
<path d="M61.641 20.8715L48.9282 13.4555L41.8774 9.37134L34.9335 21.5163L35.0403 32.909L47.6463 40.325L48.9282 39.5726V28.8248L54.5902 18.8294L60.359 22.1612V32.909L61.641 32.1566V20.8715Z" fill="white"/>
</svg>
